<svg id="Group_3" data-name="Group 3" xmlns="http://www.w3.org/2000/svg" xmlns:xlink="http://www.w3.org/1999/xlink" width="112.967" height="90" viewBox="0 0 112.967 90">
  <defs>
    <clipPath id="clip-path">
      <rect id="Rectangle_1" data-name="Rectangle 1" width="112.967" height="90" fill="none"/>
    </clipPath>
  </defs>
  <g id="Group_1" data-name="Group 1" clip-path="url(#clip-path)">
    <path id="Path_1" data-name="Path 1" d="M10.636,8.9a2.966,2.966,0,0,0,5.933,0V2.963a2.966,2.966,0,0,0-5.933,0Z" transform="translate(54.888 0.001)" fill="#f6cb43"/>
    <path id="Path_2" data-name="Path 2" d="M13.6,24.374a2.96,2.96,0,0,0,2.963-2.963V15.478a2.963,2.963,0,0,0-5.926,0v5.933A2.96,2.96,0,0,0,13.6,24.374" transform="translate(54.888 64.585)" fill="#f6cb43"/>
    <path id="Path_3" data-name="Path 3" d="M19.375,6.738a2.966,2.966,0,0,0,0,5.933h5.933a2.966,2.966,0,0,0,0-5.933Z" transform="translate(84.696 34.773)" fill="#f6cb43"/>
    <path id="Path_4" data-name="Path 4" d="M6.861,6.738a2.966,2.966,0,0,0,0,5.933h5.933a2.966,2.966,0,0,0,0-5.933Z" transform="translate(20.116 34.773)" fill="#f6cb43"/>
    <path id="Path_5" data-name="Path 5" d="M33.473,2.888A26.688,26.688,0,1,1,6.785,29.576,26.688,26.688,0,0,1,33.473,2.888" transform="translate(35.015 14.904)" fill="#f6cb43"/>
    <path id="Path_6" data-name="Path 6" d="M15.589,7.037a2.967,2.967,0,0,0,4.2,4.2l4.189-4.2a2.964,2.964,0,1,0-4.189-4.2Z" transform="translate(75.964 10.182)" fill="#f6cb43"/>
    <path id="Path_7" data-name="Path 7" d="M6.74,15.886a2.967,2.967,0,0,0,4.2,4.2l4.189-4.2a2.964,2.964,0,0,0-4.189-4.2Z" transform="translate(30.298 55.848)" fill="#f6cb43"/>
    <path id="Path_8" data-name="Path 8" d="M19.784,11.692a2.967,2.967,0,0,0-4.2,4.2l4.2,4.189a2.964,2.964,0,0,0,4.2-4.189Z" transform="translate(75.964 55.854)" fill="#f6cb43"/>
    <path id="Path_9" data-name="Path 9" d="M10.935,2.843a2.967,2.967,0,1,0-4.2,4.2l4.2,4.189a2.964,2.964,0,0,0,4.2-4.189Z" transform="translate(30.298 10.188)" fill="#f6cb43"/>
    <path id="Path_10" data-name="Path 10" d="M12.841,2.888c-.69,0-1.38.025-2.058.08a26.687,26.687,0,0,1,0,53.215c.678.049,1.368.08,2.058.08a26.688,26.688,0,1,0,0-53.375Z" transform="translate(55.647 14.904)" fill="#fab03c"/>
    <path id="Path_11" data-name="Path 11" d="M8.783,6.738H4.674a2.966,2.966,0,0,1,0,5.933H8.783a2.966,2.966,0,0,0,0-5.933Z" transform="translate(24.121 34.773)" fill="#fab03c"/>
    <path id="Path_12" data-name="Path 12" d="M21.3,6.738H17.188a2.966,2.966,0,0,1,0,5.933H21.3a2.966,2.966,0,0,0,0-5.933Z" transform="translate(88.7 34.773)" fill="#fab03c"/>
    <path id="Path_13" data-name="Path 13" d="M12.841,0a2.959,2.959,0,0,0-2.058.832,2.948,2.948,0,0,1,.906,2.132V8.9a2.948,2.948,0,0,1-.906,2.132A2.963,2.963,0,0,0,15.8,8.9V2.963A2.96,2.96,0,0,0,12.841,0" transform="translate(55.647 0.001)" fill="#fab03c"/>
    <path id="Path_14" data-name="Path 14" d="M12.841,24.373A2.96,2.96,0,0,0,15.8,21.41V15.477a2.963,2.963,0,0,0-5.021-2.132,2.948,2.948,0,0,1,.906,2.132V21.41a2.948,2.948,0,0,1-.906,2.132" transform="translate(55.647 64.58)" fill="#fab03c"/>
    <path id="Path_15" data-name="Path 15" d="M23.209,2.843a2.953,2.953,0,0,0-4.146-.037l.031.037a2.956,2.956,0,0,1,0,4.2l-4.2,4.189-.031.037a2.96,2.96,0,0,0,4.152-.037l4.189-4.189a2.967,2.967,0,0,0,0-4.2" transform="translate(76.728 10.188)" fill="#fab03c"/>
    <path id="Path_16" data-name="Path 16" d="M23.209,15.883l-4.189-4.2a2.96,2.96,0,0,0-4.152-.031l.031.031,4.2,4.2a2.956,2.956,0,0,1,0,4.2l-.031.031a2.96,2.96,0,0,0,4.146-4.226" transform="translate(76.728 55.851)" fill="#fab03c"/>
    <path id="Path_17" data-name="Path 17" d="M14.361,7.033l-4.2-4.2A2.964,2.964,0,0,0,6.02,2.8l.043.037,4.189,4.2a2.967,2.967,0,0,1,0,4.2l-.043.037a2.965,2.965,0,0,0,4.152-4.232" transform="translate(31.067 10.186)" fill="#fab03c"/>
    <path id="Path_18" data-name="Path 18" d="M14.361,11.692a2.96,2.96,0,0,0-4.152-.037l.043.037a2.967,2.967,0,0,1,0,4.2L6.063,20.076l-.043.043a2.958,2.958,0,0,0,4.146-.043l4.2-4.189A2.967,2.967,0,0,0,14.361,11.692Z" transform="translate(31.067 55.854)" fill="#fab03c"/>
    <path id="Path_19" data-name="Path 19" d="M89.082,49.666a17.514,17.514,0,0,1-17.348,17.7H17.354A17.516,17.516,0,0,1,0,49.666,22.533,22.533,0,0,1,6.53,33.7,22.019,22.019,0,0,1,22.3,27.075a22.512,22.512,0,0,1,16.96-22,18.744,18.744,0,0,1,5.286-.69,22.482,22.482,0,0,1,22.3,22.689A22.419,22.419,0,0,1,89.082,49.666" transform="translate(0 22.635)" fill="#f7f7f7"/>
    <path id="Path_20" data-name="Path 20" d="M78.5,49.088a17.557,17.557,0,0,1-17.4,17.7H17.348A17.51,17.51,0,0,1,0,49.088,22.528,22.528,0,0,1,6.524,33.12,22.033,22.033,0,0,1,22.3,26.5a22.506,22.506,0,0,1,16.954-22A22.506,22.506,0,0,1,56.2,26.5,22.429,22.429,0,0,1,78.5,49.088" transform="translate(0 23.213)" fill="#fff"/>
  </g>
</svg>
