<svg id="vuesax_bulk_sun" data-name="vuesax/bulk/sun" xmlns="http://www.w3.org/2000/svg" xmlns:xlink="http://www.w3.org/1999/xlink" width="40" height="40" viewBox="0 0 40 40">
  <defs>
    <clipPath id="clip-path">
      <rect id="Rectangle_2" data-name="Rectangle 2" width="40" height="39.808" transform="translate(0 0)" fill="none"/>
    </clipPath>
  </defs>
  <rect id="vuesax_bulk_sun-2" data-name="vuesax/bulk/sun" width="40" height="40" fill="none"/>
  <g id="Group_7" data-name="Group 7" transform="translate(0 0.192)">
    <g id="Group_4" data-name="Group 4" transform="translate(0 0)" clip-path="url(#clip-path)">
      <path id="Path_21" data-name="Path 21" d="M8.4,3.681a1.233,1.233,0,0,0,2.466,0V1.226a1.233,1.233,0,0,0-2.466,0Z" transform="translate(10.369 1.5)" fill="#fff"/>
      <path id="Path_22" data-name="Path 22" d="M9.631,20.5a1.231,1.231,0,0,0,1.233-1.227V16.823a1.233,1.233,0,0,0-2.466,0v2.452A1.231,1.231,0,0,0,9.631,20.5" transform="translate(10.369 17.804)" fill="#fff"/>
      <path id="Path_23" data-name="Path 23" d="M16.829,8.4a1.227,1.227,0,1,0,0,2.455H19.3a1.227,1.227,0,1,0,0-2.455Z" transform="translate(17.965 10.279)" fill="#fff"/>
      <path id="Path_24" data-name="Path 24" d="M1.233,8.4a1.227,1.227,0,1,0,0,2.455H3.7A1.227,1.227,0,1,0,3.7,8.4Z" transform="translate(1.506 10.279)" fill="#fff"/>
      <path id="Path_25" data-name="Path 25" d="M14.7,3.6A11.042,11.042,0,1,1,3.6,14.642,11.069,11.069,0,0,1,14.7,3.6" transform="translate(5.304 5.262)" fill="#fff"/>
      <path id="Path_26" data-name="Path 26" d="M13.848,4.555a1.229,1.229,0,0,0,1.743,1.735l1.745-1.735a1.223,1.223,0,0,0,0-1.735,1.236,1.236,0,0,0-1.745,0Z" transform="translate(15.74 4.071)" fill="#fff"/>
      <path id="Path_27" data-name="Path 27" d="M2.82,15.583a1.229,1.229,0,1,0,1.743,1.735l1.745-1.735a1.223,1.223,0,0,0,0-1.735,1.236,1.236,0,0,0-1.745,0Z" transform="translate(4.102 15.6)" fill="#fff"/>
      <path id="Path_28" data-name="Path 28" d="M15.593,13.846a1.237,1.237,0,0,0-1.743,0,1.219,1.219,0,0,0,0,1.735l1.743,1.737a1.235,1.235,0,0,0,1.741,0,1.218,1.218,0,0,0,0-1.737Z" transform="translate(15.74 15.599)" fill="#fff"/>
      <path id="Path_29" data-name="Path 29" d="M4.565,2.818a1.237,1.237,0,0,0-1.743,0,1.219,1.219,0,0,0,0,1.735L4.565,6.29a1.237,1.237,0,0,0,1.743,0,1.222,1.222,0,0,0,0-1.737Z" transform="translate(4.102 4.07)" fill="#fff"/>
      <path id="Path_30" data-name="Path 30" d="M9.437,3.6c-.288,0-.573.01-.855.033a11.039,11.039,0,0,1,0,22.019c.282.023.567.033.855.033a11.042,11.042,0,1,0,0-22.085Z" transform="translate(10.563 5.262)" fill="#e6e6e6"/>
      <path id="Path_31" data-name="Path 31" d="M2.678,8.4H.966a1.227,1.227,0,1,1,0,2.455H2.678a1.227,1.227,0,1,0,0-2.455Z" transform="translate(2.526 10.279)" fill="#e6e6e6"/>
      <path id="Path_32" data-name="Path 32" d="M18.274,8.4H16.562a1.227,1.227,0,1,1,0,2.455h1.712a1.227,1.227,0,1,0,0-2.455" transform="translate(18.984 10.279)" fill="#e6e6e6"/>
      <path id="Path_33" data-name="Path 33" d="M9.437,0a1.223,1.223,0,0,0-.855.346,1.223,1.223,0,0,1,.376.882V3.68a1.228,1.228,0,0,1-.376.884A1.234,1.234,0,0,0,10.67,3.68V1.227A1.231,1.231,0,0,0,9.437,0Z" transform="translate(10.563 1.499)" fill="#e6e6e6"/>
      <path id="Path_34" data-name="Path 34" d="M9.437,20.5a1.231,1.231,0,0,0,1.233-1.227V16.823a1.234,1.234,0,0,0-2.088-.884,1.228,1.228,0,0,1,.376.884v2.452a1.223,1.223,0,0,1-.376.882" transform="translate(10.563 17.804)" fill="#e6e6e6"/>
      <path id="Path_35" data-name="Path 35" d="M17.142,2.819A1.237,1.237,0,0,0,15.414,2.8l.016.014a1.223,1.223,0,0,1,0,1.735L13.687,6.29l-.016.014A1.241,1.241,0,0,0,15.4,6.29l1.743-1.737a1.223,1.223,0,0,0,0-1.735" transform="translate(15.933 4.07)" fill="#e6e6e6"/>
      <path id="Path_36" data-name="Path 36" d="M17.142,15.582,15.4,13.848a1.237,1.237,0,0,0-1.729-.014l.016.014,1.743,1.735a1.223,1.223,0,0,1,0,1.735l-.016.014a1.237,1.237,0,0,0,1.729-.014,1.223,1.223,0,0,0,0-1.735" transform="translate(15.933 15.6)" fill="#e6e6e6"/>
      <path id="Path_37" data-name="Path 37" d="M6.113,4.554,4.37,2.82A1.236,1.236,0,0,0,2.644,2.8l.018.016L4.405,4.554a1.223,1.223,0,0,1,0,1.735l-.018.016a1.236,1.236,0,0,0,1.726-.016,1.223,1.223,0,0,0,0-1.735" transform="translate(4.297 4.071)" fill="#e6e6e6"/>
      <path id="Path_38" data-name="Path 38" d="M6.113,13.846a1.238,1.238,0,0,0-1.726-.016l.018.016a1.223,1.223,0,0,1,0,1.735L2.662,17.317l-.018.014a1.238,1.238,0,0,0,1.726-.014l1.743-1.737A1.223,1.223,0,0,0,6.113,13.846Z" transform="translate(4.297 15.6)" fill="#e6e6e6"/>
    </g>
  </g>
</svg>
