<svg id="vuesax_bulk_sun-fog" data-name="vuesax/bulk/sun-fog" xmlns="http://www.w3.org/2000/svg" xmlns:xlink="http://www.w3.org/1999/xlink" width="40" height="40" viewBox="0 0 40 40">
  <defs>
    <clipPath id="clip-path">
      <rect id="Rectangle_3" data-name="Rectangle 3" width="29.603" height="35.866" fill="none"/>
    </clipPath>
  </defs>
  <rect id="vuesax_bulk_sun-fog-2" data-name="vuesax/bulk/sun-fog" width="40" height="40" fill="none"/>
  <g id="Group_6" data-name="Group 6" transform="translate(5.198 2.067)">
    <g id="Group_6-2" data-name="Group 6" transform="translate(0 0)" clip-path="url(#clip-path)">
      <path id="Path_39" data-name="Path 39" d="M29.6,31.55A17.682,17.682,0,0,1,19.036,35.82a17.219,17.219,0,0,1-7.213-1.033A17.93,17.93,0,0,1,18.333,0a1.453,1.453,0,0,0-.174.176,17.588,17.588,0,0,0-5.032,7.311,16.259,16.259,0,0,0-.917,3.861,17.577,17.577,0,0,0,.839,8.13,17.855,17.855,0,0,0,3.881,6.435c.02.038.058.058.078.1a17.478,17.478,0,0,0,5.576,3.939c.41.2.839.37,1.267.526A17.132,17.132,0,0,0,29.6,31.55" transform="translate(0 0)" fill="#e6e6e6"/>
      <path id="Path_40" data-name="Path 40" d="M28.354,31.46a17.682,17.682,0,0,1-10.568,4.269A17.581,17.581,0,0,1,13.069,34.7,17.9,17.9,0,0,1,16.91.09,17.588,17.588,0,0,0,11.879,7.4a16.259,16.259,0,0,0-.917,3.861,17.577,17.577,0,0,0,.839,8.13,17.855,17.855,0,0,0,3.881,6.435c.02.038.058.058.078.1a17.478,17.478,0,0,0,5.576,3.939c.41.2.839.37,1.267.526a17.132,17.132,0,0,0,5.752,1.073" transform="translate(1.249 0.09)" fill="#fff"/>
      <path id="Path_41" data-name="Path 41" d="M9.749,13.89a1,1,0,0,1-.194.116,4.5,4.5,0,0,1-1.833.41,4.413,4.413,0,0,1-.682-8.774A4.079,4.079,0,0,1,8.91,5.76a17.577,17.577,0,0,0,.839,8.13" transform="translate(3.301 5.592)" fill="#e6e6e6"/>
      <path id="Path_42" data-name="Path 42" d="M9.164,13.89a1,1,0,0,1-.194.116,3.583,3.583,0,0,1-.664.06A4.413,4.413,0,0,1,6.454,5.642a4.079,4.079,0,0,1,1.871.118,17.577,17.577,0,0,0,.839,8.13" transform="translate(3.886 5.592)" fill="#f7f7f7"/>
      <path id="Path_43" data-name="Path 43" d="M9.3,14.094a2.876,2.876,0,1,1-5.752,0,2.823,2.823,0,0,1,2.544-2.82.932.932,0,0,1,.344-.044A2.867,2.867,0,0,1,9.3,14.094" transform="translate(3.553 11.246)" fill="#e6e6e6"/>
      <path id="Path_44" data-name="Path 44" d="M8.629,14.094A2.869,2.869,0,0,1,7.4,16.458a1.242,1.242,0,0,1-.3.024,2.893,2.893,0,0,1-2.888-2.888,2.829,2.829,0,0,1,1.2-2.32.932.932,0,0,1,.344-.044,2.867,2.867,0,0,1,2.864,2.864" transform="translate(4.224 11.246)" fill="#f7f7f7"/>
      <path id="Path_45" data-name="Path 45" d="M4.736,5.223a1.131,1.131,0,1,1-2.262,0,1.11,1.11,0,0,1,1-1.109A.345.345,0,0,1,3.609,4.1,1.128,1.128,0,0,1,4.736,5.223" transform="translate(2.478 4.102)" fill="#e6e6e6"/>
      <path id="Path_46" data-name="Path 46" d="M4.472,5.223a1.131,1.131,0,0,1-.482.931.567.567,0,0,1-.116.008A1.138,1.138,0,0,1,2.737,5.027a1.109,1.109,0,0,1,.474-.913A.345.345,0,0,1,3.345,4.1,1.128,1.128,0,0,1,4.472,5.223" transform="translate(2.741 4.102)" fill="#f7f7f7"/>
      <path id="Path_47" data-name="Path 47" d="M3.249,10.383a1.131,1.131,0,1,1-2.262,0,1.11,1.11,0,0,1,1-1.109.345.345,0,0,1,.134-.018,1.128,1.128,0,0,1,1.127,1.127" transform="translate(0.988 9.269)" fill="#e6e6e6"/>
      <path id="Path_48" data-name="Path 48" d="M2.985,10.383a1.131,1.131,0,0,1-.482.931.567.567,0,0,1-.116.008A1.138,1.138,0,0,1,1.25,10.187a1.109,1.109,0,0,1,.474-.913.345.345,0,0,1,.134-.018,1.128,1.128,0,0,1,1.127,1.127" transform="translate(1.252 9.269)" fill="#f7f7f7"/>
      <path id="Path_49" data-name="Path 49" d="M14.832,17.062a3.6,3.6,0,0,1-.214.488,3.641,3.641,0,0,1-6.473-.04,3.526,3.526,0,0,1,1.033-4.485c.058-.058,0,.038.078,0-.038.078.038.02,0,.1a17.478,17.478,0,0,0,5.576,3.939" transform="translate(7.752 12.89)" fill="#e6e6e6"/>
      <path id="Path_50" data-name="Path 50" d="M14.222,16.936a3.6,3.6,0,0,1-.214.488,1.507,1.507,0,0,1-.332.194,3.67,3.67,0,0,1-4.932-1.559A3.585,3.585,0,0,1,8.646,13a17.478,17.478,0,0,0,5.576,3.939" transform="translate(8.362 13.016)" fill="#f7f7f7"/>
    </g>
  </g>
</svg>
